<?xml version="1.0" encoding="UTF-8" standalone="no"?>
<!-- Generator: Adobe Illustrator 21.0.2, SVG Export Plug-In . SVG Version: 6.00 Build 0)  -->

<svg
   version="1.1"
   id="Neu_1"
   x="0px"
   y="0px"
   viewBox="0 0 1700.9999 364.99998"
   xml:space="preserve"
   width="1701"
   height="365"
   xmlns="http://www.w3.org/2000/svg"
   xmlns:svg="http://www.w3.org/2000/svg"><defs
   id="defs1" />
<style
   type="text/css"
   id="style1">
	.st0{fill:#CC0000;}
</style>
<path
   id="Wortmarke_pos"
   d="m 1185,304 h 73 l -52,-90 c 29,-12 45,-36 45,-66 0,-46 -30,-76 -90,-76 h -115 v 232 h 63 v -81 h 32 z m 2,-156 c 0,16 -11,28 -35,28 h -44 v -56 h 44 c 24,0 35,12 35,28 z M 933,137 v 74 c 0,34 -16,45 -38,45 -21,0 -38,-12 -38,-45 v -75 h -64 v 78 c 0,61 34,95 103,95 69,0 102,-34 102,-94 V 137 Z M 857,116 V 72 h -64 v 44 z m 76,0 h 64 V 72 H 933 Z M 527,226 494,72 h -64 l 59,232 h 68 l 40,-152 40,152 h 68 L 764,72 H 700 L 667,226 627,72 h -60 z m 1109,-71 h -78 V 72 h -64 v 232 h 64 v -97 h 78 v 97 h 65 V 72 h -65 z m -302,-32 v 182 h 64 V 123 h 60 V 72 h -184 v 51 z"
   style="stroke-width:10" />
<path
   class="st0"
   d="M 333,143 H 0 V 0 h 139 v 56 h 56 V 0 H 334 V 143 Z M 194,309 v 56 c 80,-15 139,-84 139,-162 v -3 H 0 v 3 c 0,77 59,146 139,161 v -56 h 55 z"
   id="path1"
   style="stroke-width:10" />
</svg>
